<svg width="212" height="50" viewBox="0 0 212 50" fill="none" xmlns="http://www.w3.org/2000/svg">
<g clip-path="url(#clip0_70_977)">
<path d="M68.7851 38.7877H68.0557V45.3204H68.7851V38.7877Z" fill="#003D58"/>
<path d="M75.7936 44.0327L71.766 38.8191L71.7343 38.7877H71.0684V45.3204H71.7977V40.0754L75.857 45.3204H76.523V38.7877H75.7936V44.0327Z" fill="#003D58"/>
<path d="M81.2797 44.3782L78.9647 38.7877H78.1719L80.8992 45.3204H81.692L84.4193 38.7877H83.6265L81.2797 44.3782Z" fill="#003D58"/>
<path d="M86.7977 42.3053H90.0007V41.6772H86.7977V39.4473H90.6033V38.7877H86.0366V45.3204H90.7618V44.6608H86.7977V42.3053Z" fill="#003D58"/>
<path d="M97.1682 41.9598C97.4853 41.6144 97.6439 41.2061 97.6439 40.735C97.6439 40.2638 97.4219 39.6671 97.0096 39.3216C96.5974 38.9762 96.0265 38.7877 95.3289 38.7877H92.6016V45.3204H93.331V42.6822H95.2654L96.8828 45.3204H97.739L96.0265 42.5566C96.5022 42.4623 96.8511 42.2739 97.1365 41.9598H97.1682ZM93.331 39.4159H95.2654C95.7728 39.4159 96.1534 39.5415 96.4388 39.7613C96.7242 40.0126 96.8511 40.2953 96.8511 40.7036C96.8511 41.1118 96.7242 41.3945 96.4071 41.6458C96.1217 41.897 95.7094 41.9912 95.2337 41.9912H93.2992V39.3845L93.331 39.4159Z" fill="#003D58"/>
<path d="M103.416 41.9598C103.067 41.8342 102.655 41.7714 102.179 41.6771C101.703 41.6143 101.354 41.5201 101.101 41.4573C100.847 41.3945 100.657 41.2689 100.466 41.1118C100.308 40.9548 100.244 40.7663 100.244 40.5151C100.244 40.1382 100.403 39.8555 100.688 39.6357C101.005 39.4158 101.418 39.3216 101.957 39.3216C102.496 39.3216 102.877 39.4473 103.225 39.6671C103.542 39.887 103.733 40.201 103.796 40.6093V40.7035H104.526V40.5779C104.462 40.0126 104.208 39.5415 103.733 39.196C103.289 38.8505 102.686 38.6935 101.957 38.6935C101.227 38.6935 101.037 38.7563 100.657 38.9133C100.276 39.0704 99.9907 39.2902 99.7687 39.5729C99.5467 39.8555 99.4515 40.1696 99.4515 40.5465C99.4515 40.9234 99.5784 41.2689 99.8004 41.5201C100.022 41.74 100.308 41.9284 100.625 42.0226C100.942 42.1169 101.354 42.2111 101.83 42.3053C102.274 42.3681 102.655 42.4309 102.94 42.5251C103.225 42.588 103.447 42.7136 103.606 42.8706C103.764 43.0277 103.86 43.2161 103.86 43.4988C103.86 43.8756 103.701 44.1583 103.384 44.3782C103.067 44.598 102.591 44.7236 102.052 44.7236C101.513 44.7236 101.005 44.598 100.625 44.3153C100.276 44.0641 100.086 43.6872 100.054 43.2475V43.1533H99.293V43.2475C99.293 43.6558 99.4515 44.0327 99.6735 44.3467C99.8955 44.6608 100.213 44.9121 100.625 45.0691C101.037 45.2261 101.481 45.3204 102.02 45.3204C102.559 45.3204 102.972 45.2576 103.352 45.1005C103.733 44.9435 104.05 44.7236 104.272 44.441C104.494 44.1583 104.589 43.8128 104.589 43.4673C104.589 43.1219 104.462 42.745 104.24 42.4937C104.018 42.2425 103.733 42.0854 103.384 41.9598H103.416Z" fill="#003D58"/>
<path d="M107.411 38.7877H106.682V45.3204H107.411V38.7877Z" fill="#003D58"/>
<path d="M114.61 39.1646C114.103 38.8819 113.5 38.7563 112.834 38.7563C112.168 38.7563 111.597 38.9133 111.058 39.1646C110.551 39.4472 110.139 39.8555 109.853 40.358C109.568 40.8606 109.409 41.4259 109.409 42.054C109.409 42.6822 109.568 43.2475 109.853 43.75C110.139 44.2525 110.551 44.6608 111.058 44.9435C111.566 45.2261 112.168 45.3518 112.834 45.3518C113.5 45.3518 114.071 45.1947 114.61 44.9435C115.117 44.6608 115.53 44.2525 115.815 43.75C116.101 43.2475 116.259 42.6822 116.259 42.054C116.259 41.4259 116.101 40.8606 115.815 40.358C115.53 39.8555 115.117 39.4472 114.61 39.1646ZM112.834 44.7236C112.327 44.7236 111.851 44.598 111.471 44.3781C111.058 44.1583 110.773 43.8442 110.519 43.4359C110.297 43.0276 110.17 42.5565 110.17 42.054C110.17 41.5515 110.297 41.0804 110.519 40.6721C110.741 40.2638 111.058 39.9498 111.471 39.7299C111.883 39.5101 112.327 39.3844 112.834 39.3844C113.342 39.3844 113.817 39.5101 114.23 39.7299C114.642 39.9498 114.959 40.2638 115.181 40.6721C115.403 41.0804 115.53 41.5515 115.53 42.054C115.53 42.5565 115.403 43.0276 115.181 43.4359C114.959 43.8442 114.642 44.1583 114.23 44.3781C113.817 44.598 113.373 44.7236 112.834 44.7236Z" fill="#003D58"/>
<path d="M114.42 37.0289H113.532L112.485 38.4108H113.12L114.42 37.0289Z" fill="#003D58"/>
<path d="M123.014 44.0327L118.986 38.8191L118.955 38.7877H118.289V45.3204H119.018V40.0754L123.077 45.3204H123.743V38.7877H123.014V44.0327Z" fill="#003D58"/>
<path d="M130.498 38.7877H129.769V45.3204H130.498V38.7877Z" fill="#003D58"/>
<path d="M137.506 44.0327L133.479 38.8191L133.447 38.7877H132.813V45.3204H133.542V40.0754L137.57 45.3204H138.236V38.7877H137.506V44.0327Z" fill="#003D58"/>
<path d="M144.071 44.3468L141.376 38.7877H140.52V45.3204H141.249V40.1382L143.754 45.3204H144.388L146.862 40.1382V45.3204H147.591V38.7877H146.767L144.071 44.3468Z" fill="#003D58"/>
<path d="M154.822 39.1646C154.315 38.8819 153.712 38.7563 153.046 38.7563C152.38 38.7563 151.809 38.9133 151.27 39.1646C150.763 39.4472 150.35 39.8555 150.065 40.358C149.78 40.8606 149.621 41.4259 149.621 42.054C149.621 42.6822 149.78 43.2475 150.065 43.75C150.35 44.2525 150.763 44.6608 151.27 44.9435C151.778 45.2261 152.38 45.3518 153.046 45.3518C153.712 45.3518 154.283 45.1947 154.822 44.9435C155.329 44.6608 155.742 44.2525 156.027 43.75C156.312 43.2475 156.471 42.6822 156.471 42.054C156.471 41.4259 156.312 40.8606 156.027 40.358C155.742 39.8555 155.329 39.4472 154.822 39.1646ZM153.046 44.7236C152.539 44.7236 152.063 44.598 151.682 44.3781C151.27 44.1583 150.985 43.8442 150.731 43.4359C150.509 43.0276 150.382 42.5565 150.382 42.054C150.382 41.5515 150.509 41.0804 150.731 40.6721C150.953 40.2638 151.27 39.9498 151.682 39.7299C152.095 39.5101 152.539 39.3844 153.046 39.3844C153.553 39.3844 154.029 39.5101 154.441 39.7299C154.854 39.9498 155.171 40.2638 155.393 40.6721C155.615 41.0804 155.742 41.5515 155.742 42.054C155.742 42.5565 155.615 43.0276 155.393 43.4359C155.171 43.8442 154.854 44.1583 154.441 44.3781C154.029 44.598 153.585 44.7236 153.046 44.7236Z" fill="#003D58"/>
<path d="M162.306 41.9598C162.56 41.8656 162.782 41.7086 162.972 41.5201C163.226 41.2375 163.353 40.892 163.353 40.4837C163.353 40.0754 163.131 39.5101 162.75 39.2274C162.338 38.9448 161.767 38.7877 161.038 38.7877H158.532V45.3204H161.101C161.925 45.3204 162.56 45.1633 163.004 44.8493C163.448 44.5352 163.701 44.0641 163.701 43.4988C163.701 42.9334 163.543 42.6508 163.226 42.3681C163.004 42.1797 162.687 42.0226 162.338 41.9284L162.306 41.9598ZM162.433 44.3782C162.116 44.598 161.64 44.6922 161.038 44.6922H159.23V42.3053H161.038C161.64 42.3053 162.084 42.3995 162.401 42.6194C162.718 42.8078 162.877 43.0905 162.877 43.4988C162.877 43.9071 162.718 44.1583 162.433 44.3782ZM162.179 41.3945C161.925 41.5829 161.513 41.7086 161.006 41.7086H159.198V39.4787H161.006C161.513 39.4787 161.894 39.5729 162.179 39.7927C162.433 39.9812 162.56 40.2639 162.56 40.6093C162.56 40.9548 162.433 41.2375 162.179 41.4259V41.3945Z" fill="#003D58"/>
<path d="M166.46 38.7877H165.731V45.3204H166.46V38.7877Z" fill="#003D58"/>
<path d="M169.505 38.7877H168.775V45.3204H172.898V44.6608H169.505V38.7877Z" fill="#003D58"/>
<path d="M175.403 38.7877H174.674V45.3204H175.403V38.7877Z" fill="#003D58"/>
<path d="M180.699 38.7877H179.938L177.116 45.3204H177.909L178.765 43.3731H181.904L182.761 45.3204H183.553L180.763 38.8505V38.7877H180.699ZM181.587 42.7136H178.955L180.287 39.6357L181.619 42.7136H181.587Z" fill="#003D58"/>
<path d="M189.769 41.9598C190.086 41.6144 190.245 41.2061 190.245 40.735C190.245 40.2638 190.023 39.6671 189.611 39.3216C189.198 38.9762 188.628 38.7877 187.93 38.7877H185.203V45.3204H185.932V42.6822H187.867L189.484 45.3204H190.34L188.628 42.5566C189.103 42.4623 189.452 42.2739 189.738 41.9598H189.769ZM185.932 39.4159H187.898C188.406 39.4159 188.786 39.5415 189.072 39.7613C189.357 40.0126 189.484 40.2953 189.484 40.7036C189.484 41.1118 189.357 41.3945 189.04 41.6458C188.754 41.897 188.342 41.9912 187.867 41.9912H185.932V39.3845V39.4159Z" fill="#003D58"/>
<path d="M192.973 38.7877H192.243V45.3204H192.973V38.7877Z" fill="#003D58"/>
<path d="M198.269 38.8505V38.7877H197.476L194.653 45.3204H195.446L196.302 43.3731H199.442L200.298 45.3204H201.091L198.3 38.8505H198.269ZM199.157 42.745H196.524L197.856 39.6671L199.188 42.745H199.157Z" fill="#003D58"/>
<path d="M120.635 4.64825H116.766L110.233 12.8141L103.732 4.64825H99.8316L108.394 15.2952L99.356 26.5704H103.225L110.233 17.8392L117.242 26.5704H121.111L112.041 15.2952L120.635 4.64825Z" fill="#003D58"/>
<path d="M135.065 16.8028H146.735V14.196H135.065V7.38067H147.084V4.64825H131.767V26.5704H147.401V23.8065H135.065V16.8028Z" fill="#003D58"/>
<path d="M168.998 4.64826H159.325V26.5704H168.998C172.137 26.5704 174.864 25.5025 177.084 23.3355C179.336 21.1998 180.446 18.593 180.446 15.5779C180.446 12.5628 179.336 9.98746 177.084 7.82037C174.833 5.6847 172.137 4.58545 168.998 4.58545V4.64826ZM174.769 21.294C173.184 22.8643 171.249 23.6495 168.998 23.6495H162.623V7.60052H168.998C171.249 7.60052 173.184 8.3857 174.769 9.95605C176.355 11.5264 177.18 13.4108 177.18 15.6093C177.18 17.8078 176.387 19.6922 174.769 21.2626V21.294Z" fill="#003D58"/>
<path d="M79.0283 4.64825L68.0557 26.5704H71.4806L74.0177 21.3568H85.4977L88.0347 26.5704H91.428L80.4871 4.64825H79.0283ZM75.1593 19.0013L79.7577 9.48494L84.356 19.0013H75.1593Z" fill="#003D58"/>
<path d="M212 26.5704L201.059 4.64825H199.601L188.628 26.5704H192.053L194.59 21.3568H206.07L208.607 26.5704H212ZM195.732 19.0013L200.33 9.48494L204.928 19.0013H195.732Z" fill="#003D58"/>
<path d="M43.859 7.47488C33.7109 -2.57537 17.2202 -2.48115 7.19901 7.75754C-2.34654 17.4937 -2.44168 33.1972 7.00873 43.0276C10.3069 46.451 14.3027 48.7751 18.5522 49.9686C19.789 50.3141 20.5184 48.6181 19.4084 47.9586C18.1716 47.2048 16.9983 46.3254 15.92 45.2576C8.65779 38.0967 8.81636 26.1935 16.0786 19.0013L20.3281 14.7927C20.6452 14.4787 20.6452 13.9761 20.3281 13.6621L17.252 10.6156C16.7446 10.1131 17.0934 9.26508 17.8228 9.26508H34.0597C34.5037 9.26508 34.8526 9.61056 34.8526 10.0503V26.1307C34.8526 26.853 33.9963 27.1985 33.4889 26.696L30.4128 23.6495C30.0956 23.3354 29.5882 23.3354 29.2711 23.6495L26.7341 26.1621C21.9772 30.8731 21.7869 38.7877 26.5438 43.4988C31.1739 48.0842 38.5947 48.2412 43.415 43.9385C43.5736 43.7814 43.7321 43.6558 43.859 43.4988C53.9119 33.5427 53.9119 17.4309 43.859 7.47488Z" fill="#FF6720"/>
</g>
<defs>
<clipPath id="clip0_70_977">
<rect width="212" height="50" fill="white"/>
</clipPath>
</defs>
</svg>
