<?xml version="1.0" standalone="no"?>
<!DOCTYPE svg PUBLIC "-//W3C//DTD SVG 20010904//EN"
 "http://www.w3.org/TR/2001/REC-SVG-20010904/DTD/svg10.dtd">
<svg version="1.0" xmlns="http://www.w3.org/2000/svg"
 width="1024.000000pt" height="1536.000000pt" viewBox="0 0 1024.000000 1536.000000"
 preserveAspectRatio="xMidYMid meet">

<g transform="translate(0.000000,1536.000000) scale(0.100000,-0.100000)"
fill="#000000" stroke="none">
<path d="M5528 13503 c7 -3 16 -2 19 1 4 3 -2 6 -13 5 -11 0 -14 -3 -6 -6z"/>
<path d="M5698 13483 c7 -3 16 -2 19 1 4 3 -2 6 -13 5 -11 0 -14 -3 -6 -6z"/>
<path d="M5768 13473 c6 -2 18 -2 25 0 6 3 1 5 -13 5 -14 0 -19 -2 -12 -5z"/>
<path d="M5818 13463 c6 -2 18 -2 25 0 6 3 1 5 -13 5 -14 0 -19 -2 -12 -5z"/>
<path d="M5844 13435 c3 -8 0 -16 -7 -19 -7 -2 0 -5 16 -5 17 -1 27 -6 27 -16
0 -8 -4 -15 -10 -15 -5 0 -10 -10 -9 -22 0 -22 1 -22 9 -3 7 15 8 12 5 -15 -2
-20 -8 -34 -15 -32 -11 2 -10 -4 8 -58 3 -9 -1 -7 -10 4 -19 24 -17 62 2 58 8
-2 11 0 7 4 -15 15 -37 12 -39 -4 0 -10 -2 -24 -2 -32 -1 -8 -7 -14 -14 -12
-17 3 -15 -6 6 -29 11 -11 25 -17 33 -15 31 11 69 14 64 5 -4 -5 -10 -7 -15
-4 -5 3 -11 1 -15 -5 -4 -6 -11 -8 -16 -5 -5 4 -9 1 -9 -5 0 -7 9 -14 19 -17
13 -3 18 -10 14 -21 -4 -9 -2 -13 4 -9 6 4 14 0 17 -9 4 -11 1 -14 -12 -10 -9
3 -39 7 -67 10 -47 5 -46 4 15 -10 419 -98 624 -168 946 -324 198 -95 319
-165 494 -286 305 -210 607 -494 841 -789 56 -71 180 -248 193 -275 8 -17 4
-12 -109 147 -180 251 -413 500 -664 708 -401 332 -856 572 -1370 721 -292 85
-545 126 -884 146 -457 26 -897 -36 -1382 -197 -452 -149 -755 -301 -1063
-533 -498 -374 -888 -845 -1147 -1386 -155 -322 -262 -692 -320 -1106 -26
-181 -32 -695 -11 -880 23 -193 65 -399 125 -605 192 -663 549 -1300 1451
-2590 614 -878 978 -1422 1415 -2110 182 -287 585 -952 699 -1152 32 -57 59
-103 61 -103 2 0 21 33 43 73 299 543 1140 1846 1942 3007 514 745 651 949
862 1280 430 679 679 1199 797 1667 84 330 105 517 105 923 1 328 -8 440 -55
710 -65 371 -216 785 -412 1125 -72 127 -80 141 -62 120 28 -34 125 -211 195
-359 182 -379 276 -710 332 -1166 18 -142 17 -739 0 -880 -20 -161 -50 -322
-88 -469 -18 -74 -32 -136 -30 -138 2 -3 12 27 22 66 10 38 21 68 24 66 3 -2
5 13 6 32 0 21 8 41 17 48 19 13 24 30 6 19 -7 -4 -9 0 -6 12 3 11 9 40 13 67
3 26 11 50 17 54 6 4 8 -2 5 -15 -4 -15 -2 -19 8 -15 8 3 14 1 14 -5 0 -6 -6
-13 -13 -15 -9 -4 -9 -6 1 -6 6 -1 12 -8 12 -16 0 -8 6 -15 14 -15 15 0 16 16
3 37 -4 6 -3 14 3 18 6 4 7 12 4 18 -4 7 -4 9 1 5 4 -4 13 -3 20 2 8 7 11 1
10 -20 -1 -16 -4 -33 -8 -36 -4 -4 -7 -16 -7 -26 0 -10 -10 -23 -22 -28 l-23
-9 22 0 c13 -1 24 7 28 19 3 11 11 20 16 20 6 0 7 5 3 11 -3 6 0 15 7 20 11 7
11 9 1 9 -9 0 -10 5 -3 18 13 24 2 38 -32 44 -23 4 -30 1 -37 -16 -7 -16 -9
-17 -9 -4 -1 9 -6 18 -11 20 -7 2 -7 26 2 75 6 40 15 68 19 61 4 -6 3 -23 -2
-37 -13 -39 -1 -81 24 -81 6 0 2 7 -9 15 -11 8 -14 15 -6 15 6 0 12 8 12 18 0
14 2 15 10 2 5 -8 10 -24 10 -35 0 -14 7 -21 23 -22 19 -2 20 -1 5 8 -23 13
-23 32 0 25 9 -3 24 -1 32 5 12 9 11 10 -7 6 -13 -3 -23 -1 -23 5 0 5 -5 6
-12 2 -7 -4 -8 -3 -4 4 4 6 14 8 23 5 13 -5 15 -2 11 15 -4 15 -2 19 8 15 8
-3 12 -8 10 -12 -3 -4 3 -7 13 -8 10 -1 18 5 18 12 0 8 -4 12 -9 9 -14 -9 -9
14 7 30 10 10 13 24 9 41 -5 19 -2 25 10 25 9 0 19 7 22 15 4 8 12 15 20 15 8
0 14 4 14 9 0 4 -11 7 -25 5 l-25 -2 22 31 c13 18 23 34 23 37 0 3 4 4 8 2 5
-1 6 2 2 8 -3 5 -13 10 -21 10 -8 0 -12 5 -9 10 4 6 11 8 16 5 9 -6 13 8 10
32 -1 8 5 10 14 7 9 -4 14 -13 10 -22 -5 -12 -3 -13 10 -2 15 12 15 14 1 22
-8 5 -13 15 -10 23 4 8 10 12 15 9 5 -3 9 2 9 11 0 9 -4 13 -10 10 -5 -3 -10
-1 -10 4 0 6 5 11 10 11 6 0 10 8 10 18 0 13 -2 14 -9 4 -7 -11 -9 -11 -14 2
-3 8 -1 17 6 20 9 3 8 5 -1 5 -10 1 -10 4 0 15 7 8 18 11 23 8 6 -2 5 1 -2 8
-9 10 -8 16 3 27 8 8 14 23 14 34 0 13 4 18 12 13 8 -5 10 49 5 222 -4 126 -9
247 -12 269 -4 35 -3 36 4 10 5 -16 10 -50 11 -75 1 -25 4 -37 7 -26 7 26 -14
229 -38 366 -11 63 -25 140 -30 170 -19 118 -32 164 -41 144 -5 -13 -6 -9 -3
11 13 70 -139 508 -270 782 -343 716 -944 1335 -1694 1744 -160 87 -397 193
-412 183 -7 -4 -9 -3 -5 4 8 13 -29 26 -45 16 -7 -4 -9 -3 -6 3 4 6 -7 16 -26
23 -131 48 -204 69 -221 64 -14 -3 -17 -2 -8 4 18 12 -186 74 -258 77 -46 3
-115 15 -273 50 -13 2 -17 -1 -13 -10z m63 -25 c3 -10 2 -11 -4 -4 -4 7 -17
14 -28 17 -16 5 -15 5 4 4 14 -1 26 -9 28 -17z m313 -41 c10 -6 4 -7 -15 -3
-16 4 -37 11 -45 15 -10 6 -4 7 15 3 17 -4 37 -11 45 -15z m-311 -3 c9 -11 9
-16 -1 -22 -7 -4 -10 -4 -6 1 4 4 3 14 -3 22 -6 7 -9 13 -6 13 2 0 10 -6 16
-14z m416 -26 c13 -6 15 -9 5 -9 -8 0 -22 4 -30 9 -18 12 -2 12 25 0z m145
-50 c8 -5 11 -10 5 -10 -5 0 -17 5 -25 10 -8 5 -10 10 -5 10 6 0 17 -5 25 -10z
m-620 -46 c0 -8 -4 -14 -9 -14 -11 0 -22 26 -14 34 9 9 23 -3 23 -20z m805
-2285 c55 -69 219 -276 365 -460 146 -183 307 -385 358 -449 71 -89 92 -122
92 -146 0 -38 112 96 -1211 -1449 -979 -1143 -1089 -1269 -1116 -1283 -14 -8
-35 -11 -48 -8 -19 5 -175 184 -624 715 -25 30 -104 122 -175 205 -70 83 -295
349 -499 591 -204 242 -457 541 -562 664 -467 550 -455 533 -441 584 3 12 112
157 242 322 130 165 326 415 436 557 109 141 207 260 216 265 19 9 1046 18
2132 18 l735 0 100 -126z m2442 -581 c-3 -7 -5 -2 -5 12 0 14 2 19 5 13 2 -7
2 -19 0 -25z m42 -212 c2 -45 -6 -27 -12 29 -4 34 -3 42 3 25 4 -14 8 -38 9
-54z m20 -135 c2 -54 -6 -32 -12 34 -4 39 -3 50 2 30 5 -16 9 -45 10 -64z m8
-78 c-3 -10 -5 -4 -5 12 0 17 2 24 5 18 2 -7 2 -21 0 -30z m-87 -763 c0 -5 -5
-10 -11 -10 -5 0 -7 5 -4 10 3 6 8 10 11 10 2 0 4 -4 4 -10z m-25 -80 c-3 -5
-1 -10 6 -10 7 0 10 -3 6 -6 -9 -9 -28 6 -22 17 4 5 8 9 11 9 3 0 2 -4 -1 -10z
m-105 -204 c0 -11 -19 -15 -25 -6 -3 5 1 10 9 10 9 0 16 -2 16 -4z"/>
<path d="M6368 10727 c-31 -89 -99 -281 -151 -427 -52 -146 -98 -275 -101
-287 l-7 -23 505 0 c287 0 506 4 506 9 0 5 -20 33 -43 62 -118 146 -483 607
-557 704 -46 61 -86 113 -89 117 -4 4 -32 -66 -63 -155z"/>
<path d="M3793 10862 c-9 -16 -518 -682 -620 -813 -23 -30 -43 -58 -43 -62 0
-4 229 -6 510 -4 280 1 510 3 510 5 0 2 -37 96 -81 210 -45 114 -122 313 -171
442 -49 129 -90 235 -91 237 -2 1 -8 -6 -14 -15z"/>
<path d="M5494 10870 l-191 -5 89 -115 c50 -63 187 -238 305 -388 l216 -273
122 338 c67 186 131 364 143 396 l22 57 -258 -2 c-141 -1 -343 -5 -448 -8z"/>
<path d="M4050 10865 c0 -3 44 -119 98 -258 54 -138 123 -316 153 -394 30 -79
56 -143 59 -142 4 0 110 144 480 652 55 76 100 140 100 143 0 2 -200 4 -445 4
-245 0 -445 -2 -445 -5z"/>
<path d="M5095 10713 c-18 -27 -233 -326 -423 -588 l-94 -130 558 -3 c306 -1
559 0 562 2 2 3 -41 63 -96 133 -55 70 -180 229 -277 353 -225 286 -207 268
-230 233z"/>
<path d="M6559 9782 l-525 -2 -142 -433 c-78 -237 -227 -688 -331 -1002 -104
-313 -192 -579 -196 -590 -4 -11 8 -3 27 20 127 152 496 588 568 670 48 55
218 255 380 445 161 190 375 442 475 560 228 269 279 330 274 333 -2 1 -241 1
-530 -1z"/>
<path d="M4918 9773 c-247 -2 -448 -7 -448 -12 0 -4 9 -34 21 -67 24 -71 296
-921 525 -1641 54 -171 100 -310 102 -308 8 8 682 2016 682 2032 0 2 -98 2
-217 1 -120 -2 -419 -4 -665 -5z"/>
<path d="M3248 9678 c136 -161 459 -544 569 -676 59 -70 269 -320 467 -556
199 -236 412 -489 474 -563 61 -74 112 -131 112 -127 0 4 -54 176 -119 383
-66 207 -162 513 -215 681 -92 298 -248 793 -283 898 l-17 52 -533 0 -534 0
79 -92z"/>
<path d="M5928 13443 c7 -3 16 -2 19 1 4 3 -2 6 -13 5 -11 0 -14 -3 -6 -6z"/>
<path d="M6015 13424 c28 -7 57 -13 65 -13 8 0 -7 7 -35 15 -27 7 -57 13 -65
13 -8 0 8 -7 35 -15z"/>
<path d="M6108 13403 c7 -3 16 -2 19 1 4 3 -2 6 -13 5 -11 0 -14 -3 -6 -6z"/>
<path d="M5830 13370 c0 -16 5 -30 12 -30 6 0 9 3 5 6 -3 3 -2 17 3 30 7 19 6
24 -5 24 -10 0 -15 -10 -15 -30z"/>
<path d="M5798 13323 c7 -3 16 -2 19 1 4 3 -2 6 -13 5 -11 0 -14 -3 -6 -6z"/>
<path d="M5248 13213 c12 -2 30 -2 40 0 9 3 -1 5 -23 4 -22 0 -30 -2 -17 -4z"/>
<path d="M5403 13203 c9 -2 25 -2 35 0 9 3 1 5 -18 5 -19 0 -27 -2 -17 -5z"/>
<path d="M5523 13193 c9 -2 23 -2 30 0 6 3 -1 5 -18 5 -16 0 -22 -2 -12 -5z"/>
<path d="M5603 13183 c9 -2 23 -2 30 0 6 3 -1 5 -18 5 -16 0 -22 -2 -12 -5z"/>
<path d="M5678 13173 c6 -2 18 -2 25 0 6 3 1 5 -13 5 -14 0 -19 -2 -12 -5z"/>
<path d="M5743 13163 c9 -2 23 -2 30 0 6 3 -1 5 -18 5 -16 0 -22 -2 -12 -5z"/>
<path d="M9194 9495 c0 -159 2 -223 3 -142 2 82 2 212 0 290 -1 78 -3 12 -3
-148z"/>
<path d="M9172 9365 c0 -16 2 -22 5 -12 2 9 2 23 0 30 -3 6 -5 -1 -5 -18z"/>
<path d="M9170 9314 c0 -9 -5 -12 -12 -8 -8 5 -8 1 2 -12 8 -10 15 -20 16 -22
0 -1 1 11 2 28 0 16 -1 30 -4 30 -2 0 -4 -7 -4 -16z"/>
<path d="M9182 9110 c0 -19 2 -27 5 -17 2 9 2 25 0 35 -3 9 -5 1 -5 -18z"/>
<path d="M9172 9010 c0 -19 2 -27 5 -17 2 9 2 25 0 35 -3 9 -5 1 -5 -18z"/>
<path d="M9030 8981 c0 -5 9 -7 20 -4 11 3 20 7 20 9 0 2 -9 4 -20 4 -11 0
-20 -4 -20 -9z"/>
<path d="M9162 8935 c0 -16 2 -22 5 -12 2 9 2 23 0 30 -3 6 -5 -1 -5 -18z"/>
<path d="M9151 8864 c0 -11 3 -14 6 -6 3 7 2 16 -1 19 -3 4 -6 -2 -5 -13z"/>
<path d="M9142 8805 c0 -16 2 -22 5 -12 2 9 2 23 0 30 -3 6 -5 -1 -5 -18z"/>
<path d="M8960 8791 c0 -5 9 -11 21 -14 16 -4 18 -3 8 9 -13 16 -29 19 -29 5z"/>
<path d="M9131 8744 c0 -11 3 -14 6 -6 3 7 2 16 -1 19 -3 4 -6 -2 -5 -13z"/>
<path d="M8905 8740 c3 -5 8 -10 11 -10 2 0 4 5 4 10 0 6 -5 10 -11 10 -5 0
-7 -4 -4 -10z"/>
<path d="M8965 8721 c-3 -5 0 -13 6 -17 7 -4 9 -3 5 4 -3 5 0 13 6 15 9 4 10
6 1 6 -6 1 -14 -3 -18 -8z"/>
<path d="M9121 8694 c0 -11 3 -14 6 -6 3 7 2 16 -1 19 -3 4 -6 -2 -5 -13z"/>
<path d="M9111 8644 c0 -11 3 -14 6 -6 3 7 2 16 -1 19 -3 4 -6 -2 -5 -13z"/>
<path d="M8880 8643 c0 -5 5 -15 10 -23 8 -13 10 -13 10 2 0 9 6 19 13 21 6 3
2 6 -10 6 -13 1 -23 -2 -23 -6z"/>
<path d="M9101 8604 c0 -11 3 -14 6 -6 3 7 2 16 -1 19 -3 4 -6 -2 -5 -13z"/>
<path d="M9091 8564 c0 -11 3 -14 6 -6 3 7 2 16 -1 19 -3 4 -6 -2 -5 -13z"/>
<path d="M8844 8535 c1 -8 4 -16 7 -17 2 -2 3 -1 2 1 -2 2 2 10 8 18 9 10 8
13 -4 13 -8 0 -14 -7 -13 -15z"/>
<path d="M8895 8521 c-3 -5 -2 -12 3 -15 5 -3 9 1 9 9 0 17 -3 19 -12 6z"/>
<path d="M9081 8514 c0 -11 3 -14 6 -6 3 7 2 16 -1 19 -3 4 -6 -2 -5 -13z"/>
<path d="M8825 8490 c-19 -8 -19 -9 3 -9 12 -1 22 4 22 9 0 6 -1 10 -2 9 -2 0
-12 -4 -23 -9z"/>
<path d="M8910 8490 c-9 -6 -10 -10 -3 -10 6 0 15 5 18 10 8 12 4 12 -15 0z"/>
<path d="M9071 8474 c0 -11 3 -14 6 -6 3 7 2 16 -1 19 -3 4 -6 -2 -5 -13z"/>
<path d="M8786 8463 c-6 -14 -5 -15 5 -6 7 7 10 15 7 18 -3 3 -9 -2 -12 -12z"/>
<path d="M9061 8434 c0 -11 3 -14 6 -6 3 7 2 16 -1 19 -3 4 -6 -2 -5 -13z"/>
<path d="M8791 8421 c-8 -5 -9 -11 -3 -15 5 -3 12 1 16 9 6 17 6 18 -13 6z"/>
<path d="M8716 8322 c-42 -127 -40 -120 -27 -102 13 18 64 180 59 186 -2 2
-17 -36 -32 -84z"/>
<path d="M8661 8169 c-6 -18 -9 -34 -7 -36 2 -2 9 10 15 28 6 18 9 34 7 36 -2
2 -9 -10 -15 -28z"/>
<path d="M8976 8165 c-9 -26 -7 -32 5 -12 6 10 9 21 6 23 -2 3 -7 -2 -11 -11z"/>
<path d="M8620 8058 c-12 -35 -43 -106 -68 -158 -25 -52 -53 -112 -63 -132
-28 -60 -13 -44 20 20 17 31 30 52 31 46 0 -7 9 -14 20 -17 11 -3 18 0 17 7
-1 6 5 10 14 8 10 -1 19 6 22 18 3 11 1 20 -4 20 -5 0 -9 -4 -9 -10 0 -5 -13
-8 -29 -7 -32 2 -32 22 0 24 37 3 63 43 28 43 -6 0 -8 -4 -4 -9 3 -6 -4 -15
-16 -22 -18 -9 -21 -9 -16 2 64 157 88 221 84 225 -2 2 -14 -24 -27 -58z m-55
-218 c3 -5 1 -10 -4 -10 -6 0 -11 5 -11 10 0 6 2 10 4 10 3 0 8 -4 11 -10z"/>
<path d="M8667 8059 c7 -7 15 -10 18 -7 3 3 -2 9 -12 12 -14 6 -15 5 -6 -5z"/>
<path d="M8906 7975 c-9 -26 -7 -32 5 -12 6 10 9 21 6 23 -2 3 -7 -2 -11 -11z"/>
<path d="M8886 7925 c-9 -26 -7 -32 5 -12 6 10 9 21 6 23 -2 3 -7 -2 -11 -11z"/>
<path d="M8862 7865 c-17 -37 -14 -45 4 -12 9 16 14 31 11 33 -2 2 -9 -7 -15
-21z"/>
<path d="M8541 7794 c0 -11 3 -14 6 -6 3 7 2 16 -1 19 -3 4 -6 -2 -5 -13z"/>
<path d="M8817 7765 c-24 -50 -20 -58 4 -12 11 22 19 41 17 43 -3 2 -12 -12
-21 -31z"/>
<path d="M8416 7630 c-26 -49 -45 -90 -42 -90 7 0 97 172 92 177 -2 2 -25 -37
-50 -87z"/>
<path d="M8732 7585 c-17 -36 -30 -65 -27 -65 7 0 67 121 63 126 -2 2 -18 -26
-36 -61z"/>
<path d="M8426 7558 c3 -5 10 -6 15 -3 13 9 11 12 -6 12 -8 0 -12 -4 -9 -9z"/>
<path d="M8356 7513 c-6 -14 -5 -15 5 -6 7 7 10 15 7 18 -3 3 -9 -2 -12 -12z"/>
<path d="M8681 7483 c-10 -26 -10 -27 4 -9 8 11 15 23 15 28 0 15 -7 8 -19
-19z"/>
<path d="M8300 7410 c-11 -22 -18 -40 -15 -40 2 0 14 18 25 40 11 22 18 40 15
40 -2 0 -14 -18 -25 -40z"/>
<path d="M8610 7350 c-11 -22 -18 -40 -15 -40 2 0 14 18 25 40 11 22 18 40 15
40 -2 0 -14 -18 -25 -40z"/>
<path d="M8260 7340 c-6 -11 -8 -20 -6 -20 3 0 10 9 16 20 6 11 8 20 6 20 -3
0 -10 -9 -16 -20z"/>
<path d="M8220 7270 c-6 -11 -8 -20 -6 -20 3 0 10 9 16 20 6 11 8 20 6 20 -3
0 -10 -9 -16 -20z"/>
<path d="M8560 7260 c-6 -11 -8 -20 -6 -20 3 0 10 9 16 20 6 11 8 20 6 20 -3
0 -10 -9 -16 -20z"/>
<path d="M8190 7220 c-6 -11 -8 -20 -6 -20 3 0 10 9 16 20 6 11 8 20 6 20 -3
0 -10 -9 -16 -20z"/>
<path d="M8159 7168 c-7 -13 -19 -34 -27 -48 -14 -24 -13 -24 3 -5 20 24 48
75 41 75 -3 0 -11 -10 -17 -22z"/>
<path d="M8490 7140 c-6 -11 -8 -20 -6 -20 3 0 10 9 16 20 6 11 8 20 6 20 -3
0 -10 -9 -16 -20z"/>
<path d="M8095 7060 c-9 -16 -13 -30 -11 -30 3 0 12 14 21 30 9 17 13 30 11
30 -3 0 -12 -13 -21 -30z"/>
<path d="M8051 6987 c-13 -21 -12 -21 5 -5 10 10 16 20 13 22 -3 3 -11 -5 -18
-17z"/>
<path d="M8385 6964 c-9 -15 -12 -23 -6 -20 11 7 35 46 28 46 -3 0 -12 -12
-22 -26z"/>
<path d="M8000 6910 c-6 -11 -8 -20 -6 -20 3 0 10 9 16 20 6 11 8 20 6 20 -3
0 -10 -9 -16 -20z"/>
<path d="M7949 6828 c-18 -29 -63 -98 -99 -153 -80 -122 -82 -125 -77 -125 5
0 83 115 159 235 58 92 60 95 55 95 -3 0 -20 -24 -38 -52z"/>
<path d="M8320 6860 c-6 -11 -8 -20 -6 -20 3 0 10 9 16 20 6 11 8 20 6 20 -3
0 -10 -9 -16 -20z"/>
<path d="M7560 6238 c-35 -51 -56 -86 -48 -78 25 25 123 170 115 170 -3 0 -33
-42 -67 -92z"/>
<path d="M7407 6018 c-96 -139 -152 -225 -135 -208 19 20 210 300 204 300 -2
0 -33 -42 -69 -92z"/>
<path d="M7320 5799 c0 -6 6 -9 14 -6 7 3 20 0 27 -6 11 -10 11 -9 0 6 -15 19
-41 23 -41 6z"/>
<path d="M7287 5779 c7 -7 15 -10 18 -7 3 3 -2 9 -12 12 -14 6 -15 5 -6 -5z"/>
<path d="M7210 5730 c-12 -16 -19 -30 -16 -30 2 0 14 14 26 30 12 17 19 30 16
30 -2 0 -14 -13 -26 -30z"/>
<path d="M7173 5678 c-6 -7 -14 -20 -18 -28 -8 -13 -6 -13 7 -2 14 11 17 10
20 -5 3 -15 5 -14 10 5 4 14 2 20 -5 15 -6 -4 -8 0 -4 10 8 20 3 22 -10 5z"/>
<path d="M7119 5598 c-12 -18 -38 -55 -58 -83 -20 -27 -28 -44 -20 -38 9 7 18
10 21 7 3 -3 15 6 26 20 11 15 22 26 25 26 9 0 1 -28 -13 -46 -14 -18 -14 -18
6 -1 11 9 23 14 27 11 3 -3 14 -1 24 5 10 6 12 11 6 11 -14 0 -18 30 -5 30 4
0 15 7 26 15 16 12 17 16 3 29 -17 17 -32 9 -16 -10 7 -8 6 -14 -2 -20 -8 -4
-9 -3 -5 4 4 7 2 12 -3 12 -6 0 -11 -6 -11 -12 0 -9 -4 -8 -10 2 -8 13 -10 12
-10 -4 0 -11 -3 -16 -7 -13 -3 4 -12 2 -20 -4 -22 -19 -15 0 17 47 17 24 29
44 26 44 -2 0 -15 -15 -27 -32z m-39 -93 c-7 -9 -15 -13 -18 -10 -3 2 1 11 8
20 7 9 15 13 18 10 3 -2 -1 -11 -8 -20z m64 10 c3 -8 1 -15 -4 -15 -6 0 -10 7
-10 15 0 8 2 15 4 15 2 0 6 -7 10 -15z"/>
<path d="M7253 5583 c1 -17 4 -19 14 -11 7 6 13 16 13 22 0 6 -4 5 -9 -3 -7
-11 -9 -11 -14 0 -3 8 -4 4 -4 -8z"/>
<path d="M7212 5547 c2 -16 9 -34 18 -40 13 -10 13 -10 3 4 -7 9 -10 18 -7 22
3 3 1 14 -5 24 -9 16 -10 14 -9 -10z"/>
<path d="M7166 5522 c6 -4 15 -15 21 -26 9 -16 11 -17 16 -2 4 10 3 15 -2 12
-5 -3 -11 1 -15 9 -3 8 -11 15 -18 15 -9 0 -9 -3 -2 -8z"/>
<path d="M7370 5485 c0 -8 2 -15 4 -15 2 0 6 7 10 15 3 8 1 15 -4 15 -6 0 -10
-7 -10 -15z"/>
<path d="M6984 5402 c-46 -68 -51 -77 -33 -67 8 5 11 4 6 -1 -5 -5 -13 -9 -17
-9 -5 0 -54 -66 -109 -147 -68 -99 -99 -153 -96 -167 2 -12 -1 -21 -7 -21 -5
0 -8 7 -4 15 10 27 -1 16 -38 -40 -20 -31 -34 -61 -30 -67 4 -6 3 -8 -3 -5
-11 7 -66 -69 -66 -90 0 -7 -3 -10 -7 -8 -4 3 -124 -172 -267 -388 -514 -774
-670 -1023 -1157 -1845 -14 -24 -30 -40 -36 -37 -5 3 -28 38 -51 78 -75 130
-371 617 -376 617 -5 0 8 -24 68 -121 29 -46 54 -96 55 -111 3 -25 0 -28 -24
-28 -27 -1 -27 -1 -6 -18 17 -14 19 -21 10 -37 -6 -11 -13 -22 -16 -25 -9 -9
-12 -42 -3 -37 5 3 15 2 23 -4 13 -7 12 -9 -2 -9 -10 0 -18 -4 -18 -9 0 -5 -8
-11 -17 -13 -13 -2 -7 -9 20 -21 37 -18 45 -31 27 -42 -6 -4 -7 1 -3 11 4 11
2 15 -4 11 -13 -8 -24 -47 -13 -47 4 0 11 -7 14 -16 5 -14 4 -15 -9 -4 -9 7
-18 10 -22 6 -3 -3 -1 -6 5 -6 7 0 12 -7 12 -15 0 -9 6 -12 15 -9 8 4 15 2 15
-3 0 -5 -9 -9 -20 -10 -11 -1 -20 4 -20 10 0 7 -4 6 -9 -3 -7 -10 -4 -18 10
-28 11 -8 16 -18 12 -25 -8 -13 -14 -47 -15 -84 0 -13 -5 -20 -11 -16 -6 3 -7
1 -3 -6 4 -6 11 -9 16 -6 5 3 19 -4 30 -15 11 -11 25 -18 30 -15 5 3 11 1 15
-5 6 -9 -8 -14 -28 -11 -4 1 2 -18 13 -41 11 -24 14 -34 6 -23 -8 11 -23 29
-32 40 -15 19 -15 19 -2 -5 8 -14 36 -62 62 -107 26 -46 50 -83 52 -83 3 0
-11 29 -31 65 -42 75 -41 88 2 17 38 -64 56 -105 41 -96 -6 4 -9 3 -6 -2 3 -5
27 -46 53 -92 26 -45 51 -80 56 -77 5 4 6 -2 2 -11 -5 -13 -3 -15 7 -9 9 5 11
4 6 -3 -4 -7 -1 -21 7 -33 8 -11 17 -17 19 -12 3 4 3 2 1 -5 -4 -16 21 -55 29
-46 3 3 5 -2 4 -12 0 -9 5 -19 12 -21 6 -3 12 0 12 6 0 6 18 39 39 75 115 187
281 488 275 498 -4 7 -3 8 4 4 12 -7 55 66 47 78 -3 3 -2 4 2 1 10 -8 55 74
47 87 -4 6 -3 8 3 5 11 -7 107 149 99 161 -3 5 0 14 6 22 8 12 9 11 4 -5 -6
-20 -6 -20 9 0 9 11 13 25 10 33 -2 7 -1 11 4 8 12 -8 53 63 45 76 -4 7 -2 8
4 4 6 -4 16 4 23 16 12 22 11 22 -6 8 -18 -15 -18 -14 -1 13 17 24 36 41 21
17 -3 -5 -4 -10 -1 -10 3 0 10 10 17 21 8 16 8 20 -1 14 -9 -6 -9 -2 -1 14 7
11 14 21 17 21 3 0 2 -5 -2 -12 -5 -7 -3 -8 5 -4 7 5 10 15 7 23 -3 8 -2 11 4
8 11 -7 33 32 25 45 -3 5 0 12 6 16 8 5 10 2 5 -7 -4 -8 0 -5 8 6 9 11 14 25
12 32 -3 7 0 15 6 19 7 5 8 2 3 -6 -6 -9 -4 -11 4 -6 7 5 10 15 7 23 -3 8 -2
11 4 8 11 -7 33 32 25 45 -4 6 -1 9 6 8 8 -2 14 7 15 20 1 13 7 29 14 35 10
10 10 7 1 -10 -6 -13 -10 -23 -7 -23 7 0 49 74 50 90 2 18 34 80 42 80 2 0 0
-10 -6 -22 -11 -22 -11 -22 5 -3 8 11 13 25 11 32 -3 7 0 15 6 19 7 5 8 2 3
-7 -26 -45 21 20 77 106 67 104 92 147 61 106 -41 -57 -51 -63 -21 -13 17 29
36 56 41 59 6 4 7 1 2 -7 -5 -8 -4 -11 3 -6 6 4 9 12 6 19 -2 7 36 76 85 152
90 141 141 212 101 143 -29 -51 -19 -48 15 3 15 23 22 38 16 35 -18 -12 -12 7
15 47 14 21 29 35 34 32 5 -3 12 0 16 6 4 8 3 9 -4 5 -18 -11 -14 0 13 45 14
22 30 37 35 34 5 -3 12 0 16 6 4 7 3 9 -3 6 -7 -4 -10 3 -9 17 0 13 4 24 8 23
3 -1 17 14 30 33 13 19 29 35 36 35 6 0 19 11 28 25 l16 25 -21 -24 c-33 -36
-25 -11 14 47 40 58 59 71 25 17 -30 -49 -19 -44 15 6 15 23 23 39 18 36 -6
-4 -10 9 -11 28 -1 28 2 35 17 35 11 0 29 15 41 35 22 36 37 47 26 20 -9 -23
0 -18 20 13 17 26 17 26 -1 12 -17 -14 -17 -13 -10 10 l8 25 -20 -24 c-15 -18
-20 -20 -20 -8 0 9 4 14 9 11 4 -3 8 6 8 21 0 14 7 28 15 31 8 4 13 10 10 14
-3 5 2 16 11 24 19 20 40 11 23 -10 -10 -12 -8 -14 9 -11 12 2 25 7 29 12 5 4
2 4 -6 0 -11 -6 -13 -4 -8 8 4 11 1 17 -7 17 -8 0 -17 6 -19 13 -4 10 -6 10
-6 0 -1 -7 -6 -13 -12 -13 -5 0 -7 5 -4 10 3 6 -1 10 -9 10 -8 0 -17 3 -19 8
-3 4 10 7 29 7 20 0 34 -4 34 -11 0 -7 7 -11 15 -10 19 3 32 16 15 16 -13 0
-5 15 8 15 4 0 13 4 20 8 6 5 12 4 12 0 0 -5 -6 -15 -12 -22 -10 -11 -10 -12
-1 -7 7 4 18 16 24 28 8 14 8 18 0 14 -7 -5 -10 3 -7 23 2 17 -1 28 -5 25 -5
-3 -9 -12 -9 -19 0 -9 -6 -12 -15 -9 -8 4 -15 10 -15 16 0 5 5 6 10 3 6 -3 10
-1 10 4 0 12 -15 14 -67 13 -18 -1 -35 2 -38 7 -2 5 11 8 30 7 23 -1 35 3 35
12 0 7 -4 10 -10 7 -5 -3 -10 -1 -10 4 0 16 32 13 54 -4 23 -17 46 -20 46 -4
0 5 -4 8 -9 5 -5 -4 -16 -3 -25 0 -14 5 -14 9 -4 23 12 14 11 15 -4 2 -13 -9
-18 -10 -18 -2 0 7 -4 9 -10 6 -6 -3 -7 1 -4 9 6 15 -6 21 -31 16 -5 -1 -6 2
-2 7 5 4 14 8 20 8 7 1 11 7 9 14 -1 7 2 10 8 6 5 -3 10 -17 10 -31 0 -15 4
-23 10 -19 6 4 7 12 3 18 -4 7 1 6 10 -2 10 -8 20 -11 24 -7 3 3 1 6 -6 6 -8
0 -9 5 -2 19 9 16 8 18 -11 13 -14 -3 -19 -1 -15 6 4 5 1 13 -5 15 -7 3 3 3
23 0 30 -4 39 -1 52 18 9 12 20 19 24 15 4 -4 1 -11 -6 -15 -8 -5 -9 -11 -3
-15 12 -7 4 -46 -10 -46 -5 0 -7 4 -4 8 3 5 -1 9 -9 9 -19 0 -19 -5 -1 -22 23
-23 39 5 45 80 1 6 6 3 12 -5 8 -12 9 -10 4 8 -5 15 -2 22 8 22 19 0 28 23 15
41 -8 11 -9 10 -4 -3 3 -10 1 -18 -4 -18 -6 0 -10 9 -10 20 0 23 -10 26 -29 8
-10 -11 -10 -8 -2 14 8 20 7 28 -5 32 -8 3 -14 11 -13 18 0 9 2 9 5 2 3 -7 15
-10 27 -7 14 3 18 2 10 -4 -14 -10 -6 -23 25 -41 13 -7 22 -8 22 -2 0 5 -4 10
-10 10 -5 0 -7 8 -4 18 5 14 4 15 -5 2 -9 -12 -11 -12 -11 -1 0 8 8 20 18 28
15 13 15 14 0 9 -12 -3 -15 -1 -12 9 3 8 9 14 12 13 19 -2 33 3 28 11 -3 5 4
11 17 15 14 3 23 14 24 26 1 11 -2 18 -7 15 -11 -7 -7 22 5 32 4 4 5 3 1 -4
-9 -17 14 -28 27 -13 9 10 9 11 -2 5 -8 -5 -12 -4 -9 1 3 5 2 19 -3 32 -7 18
-14 22 -29 17 -16 -5 -20 -2 -20 19 0 30 16 30 42 1 17 -20 17 -19 5 7 -6 15
-16 27 -22 27 -26 -3 -45 2 -45 12 0 5 5 7 10 4 6 -3 10 -1 10 4 0 17 -18 13
-29 -6 -6 -10 -11 -13 -11 -8 0 6 -9 16 -19 22 -17 11 -23 5 -57 -45z m59 6
c6 -4 17 -2 24 4 14 11 22 -2 20 -35 0 -12 -7 -17 -21 -15 -12 1 -27 -1 -33
-5 -8 -5 -13 -3 -13 3 0 6 -5 8 -12 3 -21 -12 -39 -12 -35 0 3 7 9 11 15 10 7
-2 9 4 5 14 -5 12 -3 14 7 8 8 -5 11 -4 6 3 -4 6 -1 21 6 32 12 19 13 19 17 3
2 -10 8 -21 14 -25z m39 -85 c-6 -2 -9 -10 -5 -16 3 -7 3 -9 -2 -5 -4 4 -15 2
-24 -4 -10 -8 -9 -4 3 10 11 12 24 22 30 21 6 0 6 -3 -2 -6z m-146 -30 c0 -10
5 -17 12 -15 8 1 11 -2 7 -8 -8 -13 -32 -13 -40 0 -4 6 -1 17 5 25 16 19 18
19 16 -2z m78 9 c3 -5 -1 -9 -9 -9 -8 0 -12 4 -9 9 3 4 7 8 9 8 2 0 6 -4 9 -8z
m86 -42 c-14 -10 -27 -17 -29 -14 -6 5 31 33 44 33 6 1 -1 -8 -15 -19z m-181
-26 c-6 -8 -15 -11 -20 -8 -5 3 -6 -2 -3 -11 5 -11 2 -14 -11 -9 -11 5 -16 2
-15 -7 1 -8 2 -21 1 -29 -1 -12 -3 -12 -11 2 -14 24 37 103 57 87 10 -9 10
-15 2 -25z m41 -4 c-27 -21 -40 -25 -40 -12 0 14 19 28 42 29 23 2 23 2 -2
-17z m74 -4 c-10 -8 -21 -12 -24 -10 -5 6 21 24 34 24 6 0 1 -6 -10 -14z
m-102 -41 c0 -5 -5 -11 -11 -13 -6 -2 -11 4 -11 13 0 9 5 15 11 13 6 -2 11 -8
11 -13z m51 -15 c3 -11 1 -18 -4 -14 -5 3 -9 12 -9 20 0 20 7 17 13 -6z m-136
-4 c-3 -8 -3 -17 1 -19 4 -2 2 -2 -5 -1 -6 2 -14 -4 -17 -13 -4 -9 -9 -13 -12
-10 -3 3 2 17 11 31 19 28 30 35 22 12z m82 -12 c12 11 21 14 21 8 0 -6 9 -14
21 -17 11 -4 18 -9 16 -12 -3 -2 -14 0 -24 5 -13 7 -26 6 -43 -3 -28 -15 -52
-3 -43 21 4 12 8 12 18 -3 13 -17 14 -17 34 1z m-151 -89 c-6 -14 -15 -25 -20
-25 -5 0 -1 11 8 25 9 14 18 25 20 25 2 0 -2 -11 -8 -25z m127 15 c3 -6 -1 -7
-9 -4 -18 7 -21 14 -7 14 6 0 13 -4 16 -10z m42 -23 c0 -7 -9 -14 -20 -14 -19
-2 -19 -2 -1 12 11 8 19 15 20 15 0 0 1 -6 1 -13z m-172 -37 c3 -5 -1 -10 -10
-10 -9 0 -13 5 -10 10 3 6 8 10 10 10 2 0 7 -4 10 -10z m49 -66 c6 -15 4 -15
-11 -3 -10 7 -20 15 -22 16 -2 2 3 3 11 3 9 0 19 -7 22 -16z m-116 -8 c-2 0
-14 -10 -27 -21 l-25 -20 20 26 c10 15 23 25 27 22 5 -3 7 -6 5 -7z m66 -8
c-3 -4 -11 -5 -19 -1 -21 7 -19 12 4 10 11 0 18 -5 15 -9z m84 -2 c-7 -8 -15
-12 -17 -11 -5 6 10 25 20 25 5 0 4 -6 -3 -14z m-51 -18 c-3 -8 -6 -5 -6 6 -1
11 2 17 5 13 3 -3 4 -12 1 -19z m-17 -28 c0 -5 -2 -10 -4 -10 -3 0 -8 5 -11
10 -3 6 -1 10 4 10 6 0 11 -4 11 -10z m26 -140 c0 -11 -4 -20 -8 -20 -4 0 -8
9 -8 20 0 11 4 20 8 20 4 0 8 -9 8 -20z m-675 -1147 c-5 -10 -17 -27 -26 -38
-16 -19 -17 -19 -3 5 26 46 29 50 34 50 3 0 0 -8 -5 -17z m-48 -78 c-3 -9 -8
-14 -10 -11 -3 3 -2 9 2 15 9 16 15 13 8 -4z m-1259 -973 c3 -5 -1 -9 -9 -9
-8 0 -12 4 -9 9 3 4 7 8 9 8 2 0 6 -4 9 -8z m-24 -32 c0 -5 -5 -10 -11 -10 -5
0 -7 5 -4 10 3 6 8 10 11 10 2 0 4 -4 4 -10z m160 -330 c6 -11 8 -20 6 -20 -3
0 -10 9 -16 20 -6 11 -8 20 -6 20 3 0 10 -9 16 -20z m35 -60 c9 -16 13 -30 11
-30 -3 0 -12 14 -21 30 -9 17 -13 30 -11 30 3 0 12 -13 21 -30z"/>
<path d="M7134 5452 c3 -6 -2 -13 -11 -15 -16 -4 -16 -5 -1 -6 21 -1 32 15 17
25 -7 4 -9 3 -5 -4z"/>
<path d="M7165 5440 c3 -5 8 -10 11 -10 2 0 4 5 4 10 0 6 -5 10 -11 10 -5 0
-7 -4 -4 -10z"/>
<path d="M7160 5403 c0 -17 8 -16 26 1 12 13 12 15 -6 13 -11 -1 -20 -7 -20
-14z"/>
<path d="M7178 5362 c-10 -2 -18 -10 -18 -19 0 -13 2 -14 17 -2 9 8 14 9 10 3
-3 -6 0 -11 7 -11 8 0 13 6 12 13 -3 18 -8 21 -28 16z"/>
<path d="M7180 5305 c0 -8 5 -15 10 -15 6 0 10 7 10 15 0 8 -4 15 -10 15 -5 0
-10 -7 -10 -15z"/>
<path d="M7133 5230 c1 -21 10 -18 13 5 1 8 -2 15 -6 15 -5 0 -8 -9 -7 -20z"/>
<path d="M7101 5204 c0 -11 3 -14 6 -6 3 7 2 16 -1 19 -3 4 -6 -2 -5 -13z"/>
<path d="M7104 5176 c-10 -8 -16 -18 -11 -22 4 -4 7 -2 7 5 0 7 4 10 9 7 5 -3
11 1 15 9 7 19 5 19 -20 1z"/>
<path d="M7149 5153 c-13 -16 -12 -17 4 -4 9 7 17 15 17 17 0 8 -8 3 -21 -13z"/>
<path d="M7056 5062 c-3 -5 1 -9 9 -9 8 0 12 4 9 9 -3 4 -7 8 -9 8 -2 0 -6 -4
-9 -8z"/>
<path d="M7089 5033 c-13 -16 -12 -17 4 -4 16 13 21 21 13 21 -2 0 -10 -8 -17
-17z"/>
<path d="M7056 5023 c-6 -14 -5 -15 5 -6 7 7 10 15 7 18 -3 3 -9 -2 -12 -12z"/>
<path d="M6963 4861 c0 -11 5 -18 9 -15 4 3 5 11 1 19 -7 21 -12 19 -10 -4z"/>
<path d="M6543 4218 c-15 -20 -25 -38 -20 -38 3 0 12 11 21 25 17 26 16 35 -1
13z"/>
<path d="M6483 4128 c-15 -20 -25 -38 -20 -38 3 0 12 11 21 25 17 26 16 35 -1
13z"/>
<path d="M6352 3928 c-36 -54 -44 -68 -39 -68 2 0 21 25 41 55 20 30 34 55 32
55 -3 0 -18 -19 -34 -42z"/>
<path d="M6293 3838 c-15 -20 -25 -38 -20 -38 3 0 12 11 21 25 17 26 16 35 -1
13z"/>
<path d="M6250 3770 c-6 -11 -8 -20 -6 -20 3 0 10 9 16 20 6 11 8 20 6 20 -3
0 -10 -9 -16 -20z"/>
<path d="M4590 3380 c6 -11 13 -20 16 -20 2 0 0 9 -6 20 -6 11 -13 20 -16 20
-2 0 0 -9 6 -20z"/>
<path d="M4630 2740 c6 -11 13 -20 16 -20 2 0 0 9 -6 20 -6 11 -13 20 -16 20
-2 0 0 -9 6 -20z"/>
<path d="M4747 2572 c5 -11 3 -13 -6 -7 -10 6 -11 3 -2 -14 14 -25 23 -28 14
-4 -4 11 -3 14 5 9 7 -4 12 -2 12 3 0 6 1 14 3 18 1 3 -6 7 -15 9 -11 1 -15
-3 -11 -14z"/>
</g>
</svg>
